<svg id="vrsvg" class="" xmlns="http://www.w3.org/2000/svg" width="445px" height="210px">
<style>
.txtmain {
    font-family:sans-serif;
    font-size:18px;
}
.txtsub {
    font-family:sans-serif;
    font-size:12px;
}
.linemain {
    fill:none;
    stroke:#000000;
    stroke-width:3;
    stroke-miterlimit:10;
}
.capacitor {
    fill:black;
    stroke:#000000;
    stroke-width:3;
    stroke-miterlimit:10;
}
</style>
<rect x="0" y="0" width="445" height="210" fill="white"></rect>
<rect x="125" y="8" class="linemain" width="80" height="56"></rect>
<rect x="55" y="110" class="capacitor" width="40" height="4"></rect>
<rect x="55" y="122" class="capacitor" width="40" height="4"></rect>
<rect x="314" y="110" class="capacitor" width="40" height="4"></rect>
<rect x="314" y="122" class="capacitor" width="40" height="4"></rect>
<line class="linemain" x1="125" y1="36" x2="15" y2="36"></line>
<line class="linemain" x1="431" y1="36" x2="205" y2="36"></line>
<line class="linemain" x1="431" y1="200" x2="14" y2="200"></line>
<line class="linemain" x1="75" y1="36" x2="75" y2="114"></line>
<line class="linemain" x1="75" y1="122" x2="75" y2="200"></line>
<line class="linemain" x1="334" y1="36" x2="334" y2="114"></line>
<line class="linemain" x1="334" y1="122" x2="334" y2="200"></line>
<polyline class="linemain" points="261,118 165,118 165,64"></polyline>
<polyline class="linemain" points="261,118 261,100.553 253,96.73 269,89.063 253,81.396 269,73.73 253,66.065 269,58.396 261,54.508 261,36 "></polyline>
<polyline class="linemain" points="261,200 261,181.553 253,177.73 269,170.063 253,162.396 269,154.73 253,147.065 269,139.396 261,135.508 261,118 "></polyline>
<circle class="linemain" cx="10" cy="36" r="4"></circle>
<circle class="linemain" cx="435" cy="36" r="4"></circle>
<circle class="linemain" cx="10" cy="200" r="4"></circle>
<circle class="linemain" cx="435" cy="200" r="4"></circle>
<circle cx="261" cy="36" r="4"></circle>
<circle cx="261" cy="118" r="4"></circle>
<circle cx="261" cy="200" r="4"></circle>
<circle cx="334" cy="36" r="4"></circle>
<circle cx="334" cy="200" r="4"></circle>
<circle cx="75" cy="36" r="4"></circle>
<circle cx="75" cy="200" r="4"></circle>
<text transform="matrix(1 0 0 1 1 124.1553)" class="txtmain">V</text>
<text transform="matrix(1 0 0 1 15 126.1035)" class="txtsub">in</text>
<text transform="matrix(1 0 0 1 96 28.1553)" class="txtmain">V</text>
<text transform="matrix(1 0 0 1 110 29.812)" class="txtsub">in</text>
<text transform="matrix(1 0 0 1 211 28.1553)" class="txtmain">V</text>
<text transform="matrix(1 0 0 1 225 29.812)" class="txtsub">out</text>
<text transform="matrix(1 0 0 1 410 124.1553)" class="txtmain">V</text>
<text transform="matrix(1 0 0 1 424 126.1035)" class="txtsub">out</text>
<text transform="matrix(1 0 0 1 169 83.1553)" class="txtmain">V</text>
<text transform="matrix(1 0 0 1 183 84.812)" class="txtsub">adj</text>
<text transform="matrix(1 0 0 1 277 84.1553)" class="txtmain">R</text>
<text transform="matrix(1 0 0 1 291 85.812)" class="txtsub">1</text>
<text transform="matrix(1 0 0 1 277 164.1563)" class="txtmain">R</text>
<text transform="matrix(1 0 0 1 291 165.8125)" class="txtsub">2</text>
<text transform="matrix(1 0 0 1 105 124.1553)" class="txtmain">C</text>
<text transform="matrix(1 0 0 1 119 126.1035)" class="txtsub">1</text>
<text transform="matrix(1 0 0 1 364 124.1553)" class="txtmain">C</text>
<text transform="matrix(1 0 0 1 378 126.1035)" class="txtsub">2</text>
</svg>